<?xml version="1.0" encoding="UTF-8"?>
<svg
  width="300"
  height="400"
  viewBox="0 0 300 400"
  xmlns="http://www.w3.org/2000/svg"
>
  <!-- Ground -->
  <rect x="0" y="340" width="300" height="60" fill="black" />

  <!-- Couple group -->
  <g fill="#050505">
    <!-- Person 1 (left, slightly taller) -->
    <!-- Legs -->
    <rect x="110" y="240" width="20" height="100" rx="6" />
    <rect x="130" y="240" width="20" height="100" rx="6" />
    <!-- Body -->
    <rect x="105" y="190" width="50" height="60" rx="16" />
    <!-- Arm reaching toward other person -->
    <rect x="140" y="210" width="40" height="14" rx="7" transform="rotate(-10 140 210)" />
    <!-- Head -->
    <circle cx="130" cy="175" r="18" />

    <!-- Person 2 (right, slightly shorter, leaning closer) -->
    <!-- Legs -->
    <rect x="160" y="250" width="18" height="90" rx="6" transform="rotate(2 160 250)" />
    <rect x="178" y="250" width="18" height="90" rx="6" transform="rotate(-2 178 250)" />
    <!-- Dress-like body for softer, cute silhouette -->
    <path d="M 155 220 C 165 205 185 205 195 220 L 205 270 L 145 270 Z" />
    <!-- Arm holding hands -->
    <rect x="150" y="220" width="45" height="12" rx="6" transform="rotate(8 150 220)" />
    <!-- Head, slightly tilted upward -->
    <circle cx="178" cy="190" r="17" />

    <!-- Joined hands (small overlap circle) -->
    <circle cx="155" cy="227" r="6" />
  </g>
</svg>
