<?xml version="1.0" encoding="UTF-8"?>
<svg
  width="300"
  height="400"
  viewBox="0 0 300 400"
  xmlns="http://www.w3.org/2000/svg"
>
  <!-- Rooftop platform they're standing on -->
  <rect x="50" y="280" width="200" height="120" fill="#2a2a2a" rx="8" />
  
  <!-- Rooftop railing -->
  <g fill="#1a1a1a" stroke="#333" stroke-width="2">
    <rect x="55" y="275" width="4" height="25" rx="1" />
    <rect x="85" y="275" width="4" height="25" rx="1" />
    <rect x="115" y="275" width="4" height="25" rx="1" />
    <rect x="145" y="275" width="4" height="25" rx="1" />
    <rect x="175" y="275" width="4" height="25" rx="1" />
    <rect x="205" y="275" width="4" height="25" rx="1" />
    <rect x="235" y="275" width="4" height="25" rx="1" />
    <rect x="50" y="273" width="200" height="3" rx="1" />
  </g>
  
  <!-- Sparkles/stars around couple -->
  <g fill="#ffffff">
    <circle cx="100" cy="160" r="4">
      <animate attributeName="opacity" values="1;0.3;1" dur="2s" repeatCount="indefinite" />
    </circle>
    <circle cx="95" cy="175" r="3">
      <animate attributeName="opacity" values="0.3;1;0.3" dur="2.5s" repeatCount="indefinite" />
    </circle>
    <circle cx="210" cy="165" r="4">
      <animate attributeName="opacity" values="1;0.4;1" dur="1.8s" repeatCount="indefinite" />
    </circle>
    <circle cx="215" cy="180" r="3">
      <animate attributeName="opacity" values="0.4;1;0.4" dur="2.2s" repeatCount="indefinite" />
    </circle>
    <circle cx="150" cy="150" r="3.5">
      <animate attributeName="opacity" values="1;0.5;1" dur="2.3s" repeatCount="indefinite" />
    </circle>
    <circle cx="190" cy="155" r="3">
      <animate attributeName="opacity" values="0.5;1;0.5" dur="2s" repeatCount="indefinite" />
    </circle>
  </g>
  
  <!-- Couple group -->
  <g fill="#000000">
    <!-- Person 1 (left, slightly taller) -->
    <!-- Legs -->
    <rect x="110" y="240" width="20" height="100" rx="6" />
    <rect x="130" y="240" width="20" height="100" rx="6" />
    <!-- Body -->
    <rect x="105" y="190" width="50" height="60" rx="16" />
    <!-- Arm reaching toward other person -->
    <rect x="140" y="210" width="40" height="14" rx="7" transform="rotate(-10 140 210)" />
    <!-- Head -->
    <circle cx="130" cy="175" r="18" />

    <!-- Person 2 (right, slightly shorter, leaning closer) -->
    <!-- Legs -->
    <rect x="160" y="250" width="18" height="90" rx="6" transform="rotate(2 160 250)" />
    <rect x="178" y="250" width="18" height="90" rx="6" transform="rotate(-2 178 250)" />
    <!-- Dress-like body for softer, cute silhouette -->
    <path d="M 155 220 C 165 205 185 205 195 220 L 205 270 L 145 270 Z" />
    <!-- Arm holding hands -->
    <rect x="150" y="220" width="45" height="12" rx="6" transform="rotate(8 150 220)" />
    <!-- Head, slightly tilted upward -->
    <circle cx="178" cy="190" r="17" />

    <!-- Joined hands (small overlap circle) -->
    <circle cx="155" cy="227" r="6" />
  </g>
</svg>
