<?xml version="1.0" encoding="UTF-8"?>
<svg
  width="1200"
  height="300"
  viewBox="0 0 1200 300"
  xmlns="http://www.w3.org/2000/svg"
>
  <!-- Rounded building shapes -->
  <g fill="#2a2a2a">
    <!-- Left cluster -->
    <rect x="0" y="140" width="80" height="160" rx="8" />
    <rect x="70" y="110" width="100" height="190" rx="10" />
    <rect x="150" y="160" width="70" height="140" rx="8" />
    <rect x="210" y="130" width="90" height="170" rx="12" />

    <!-- Mid cluster -->
    <rect x="280" y="100" width="110" height="200" rx="14" />
    <rect x="360" y="150" width="80" height="150" rx="10" />
    <rect x="420" y="120" width="90" height="180" rx="12" />
    <rect x="490" y="170" width="70" height="130" rx="8" />

    <!-- Center tall Times Square-style tower -->
    <rect x="540" y="20" width="110" height="280" rx="16" />
    
    <!-- Right mid cluster -->
    <rect x="640" y="130" width="80" height="170" rx="12" />
    <rect x="700" y="100" width="100" height="200" rx="14" />
    <rect x="780" y="150" width="90" height="150" rx="10" />

    <!-- Right cluster -->
    <rect x="860" y="110" width="110" height="190" rx="14" />
    <rect x="940" y="160" width="80" height="140" rx="10" />
    <rect x="1010" y="130" width="90" height="170" rx="12" />
    <rect x="1090" y="150" width="80" height="150" rx="10" />
  </g>
  
  <!-- Ball drop pole structure at top -->
  <g fill="#3a3a3a" stroke="#555" stroke-width="2">
    <rect x="590" y="5" width="10" height="20" rx="2" />
    <rect x="585" y="3" width="20" height="4" rx="1" />
  </g>

  <!-- Window lights on buildings -->
  <g fill="#ffe066">
    <!-- Left buildings - more windows -->
    <rect x="10" y="160" width="6" height="8" rx="1" />
    <rect x="20" y="160" width="6" height="8" rx="1" />
    <rect x="30" y="160" width="6" height="8" rx="1" />
    <rect x="10" y="180" width="6" height="8" rx="1" />
    <rect x="20" y="180" width="6" height="8" rx="1" />
    
    <rect x="85" y="130" width="8" height="10" rx="1" />
    <rect x="100" y="130" width="8" height="10" rx="1" />
    <rect x="115" y="130" width="8" height="10" rx="1" />
    <rect x="85" y="150" width="8" height="10" rx="1" />
    <rect x="100" y="150" width="8" height="10" rx="1" />
    <rect x="115" y="150" width="8" height="10" rx="1" />
    <rect x="85" y="170" width="8" height="10" rx="1" />
    <rect x="100" y="170" width="8" height="10" rx="1" />
    
    <rect x="165" y="180" width="6" height="8" rx="1" />
    <rect x="175" y="180" width="6" height="8" rx="1" />
    <rect x="225" y="150" width="8" height="10" rx="1" />
    <rect x="240" y="150" width="8" height="10" rx="1" />
    <rect x="225" y="170" width="8" height="10" rx="1" />
    <rect x="240" y="170" width="8" height="10" rx="1" />
    
    <!-- Mid buildings - more windows -->
    <rect x="295" y="120" width="10" height="12" rx="1" />
    <rect x="310" y="120" width="10" height="12" rx="1" />
    <rect x="325" y="120" width="10" height="12" rx="1" />
    <rect x="295" y="145" width="10" height="12" rx="1" />
    <rect x="310" y="145" width="10" height="12" rx="1" />
    <rect x="325" y="145" width="10" height="12" rx="1" />
    <rect x="295" y="170" width="10" height="12" rx="1" />
    <rect x="310" y="170" width="10" height="12" rx="1" />
    
    <rect x="375" y="170" width="8" height="10" rx="1" />
    <rect x="390" y="170" width="8" height="10" rx="1" />
    <rect x="435" y="140" width="8" height="10" rx="1" />
    <rect x="450" y="140" width="8" height="10" rx="1" />
    <rect x="435" y="160" width="8" height="10" rx="1" />
    <rect x="450" y="160" width="8" height="10" rx="1" />
    
    <!-- Times Square tower - full of windows -->
    <rect x="555" y="40" width="15" height="20" rx="2" />
    <rect x="575" y="40" width="15" height="20" rx="2" />
    <rect x="595" y="40" width="15" height="20" rx="2" />
    <rect x="615" y="40" width="15" height="20" rx="2" />
    <rect x="555" y="70" width="15" height="20" rx="2" />
    <rect x="575" y="70" width="15" height="20" rx="2" />
    <rect x="595" y="70" width="15" height="20" rx="2" />
    <rect x="615" y="70" width="15" height="20" rx="2" />
    <rect x="555" y="100" width="15" height="20" rx="2" />
    <rect x="575" y="100" width="15" height="20" rx="2" />
    <rect x="595" y="100" width="15" height="20" rx="2" />
    <rect x="615" y="100" width="15" height="20" rx="2" />
    <rect x="555" y="130" width="15" height="20" rx="2" />
    <rect x="575" y="130" width="15" height="20" rx="2" />
    <rect x="595" y="130" width="15" height="20" rx="2" />
    <rect x="615" y="130" width="15" height="20" rx="2" />
    
    <!-- Right buildings - more windows -->
    <rect x="655" y="150" width="8" height="10" rx="1" />
    <rect x="670" y="150" width="8" height="10" rx="1" />
    <rect x="655" y="170" width="8" height="10" rx="1" />
    
    <rect x="715" y="120" width="10" height="12" rx="1" />
    <rect x="730" y="120" width="10" height="12" rx="1" />
    <rect x="745" y="120" width="10" height="12" rx="1" />
    <rect x="715" y="145" width="10" height="12" rx="1" />
    <rect x="730" y="145" width="10" height="12" rx="1" />
    <rect x="745" y="145" width="10" height="12" rx="1" />
    
    <rect x="795" y="170" width="8" height="10" rx="1" />
    <rect x="810" y="170" width="8" height="10" rx="1" />
    <rect x="875" y="130" width="10" height="12" rx="1" />
    <rect x="890" y="130" width="10" height="12" rx="1" />
    <rect x="905" y="130" width="10" height="12" rx="1" />
    <rect x="875" y="155" width="10" height="12" rx="1" />
    <rect x="890" y="155" width="10" height="12" rx="1" />
    
    <rect x="955" y="180" width="8" height="10" rx="1" />
    <rect x="970" y="180" width="8" height="10" rx="1" />
    <rect x="1025" y="150" width="8" height="10" rx="1" />
    <rect x="1040" y="150" width="8" height="10" rx="1" />
    <rect x="1105" y="170" width="8" height="10" rx="1" />
    <rect x="1120" y="170" width="8" height="10" rx="1" />
  </g>
  
  <!-- Neon signs/billboards -->
  <g>
    <rect x="370" y="165" width="25" height="15" fill="#ff1493" opacity="0.8" rx="2" />
    <rect x="505" y="185" width="20" height="12" fill="#00ffff" opacity="0.8" rx="2" />
    <rect x="795" y="165" width="30" height="18" fill="#ff4500" opacity="0.8" rx="2" />
  </g>
  
  <!-- Snow on rooftops -->
  <g fill="#ffffff" opacity="0.9">
    <rect x="0" y="138" width="80" height="6" rx="3" />
    <rect x="70" y="108" width="100" height="6" rx="3" />
    <rect x="150" y="158" width="70" height="6" rx="3" />
    <rect x="210" y="128" width="90" height="6" rx="3" />
    <rect x="280" y="98" width="110" height="6" rx="3" />
    <rect x="360" y="148" width="80" height="6" rx="3" />
    <rect x="420" y="118" width="90" height="6" rx="3" />
    <rect x="490" y="168" width="70" height="6" rx="3" />
    <rect x="540" y="18" width="110" height="6" rx="3" />
    <rect x="640" y="128" width="80" height="6" rx="3" />
    <rect x="700" y="98" width="100" height="6" rx="3" />
    <rect x="780" y="148" width="90" height="6" rx="3" />
    <rect x="860" y="108" width="110" height="6" rx="3" />
    <rect x="940" y="158" width="80" height="6" rx="3" />
    <rect x="1010" y="128" width="90" height="6" rx="3" />
    <rect x="1090" y="148" width="80" height="6" rx="3" />
  </g>

  <!-- Soft roof details (simple cute antennas) -->
  <g stroke="#090909" stroke-width="4" stroke-linecap="round">
    <line x1="585" y1="30" x2="585" y2="10" />
    <line x1="595" y1="30" x2="595" y2="5" />
  </g>
</svg>
